<svg xmlns="http://www.w3.org/2000/svg" x="0px" y="0px" viewBox="0 0 50 50">
  <path
    d="M 25 2 C 12.316406 2 2 12.316406 2 25 C 2 37.683594 12.316406 48 25 48 C 37.683594 48 48 37.683594 48 25 C 48 12.316406 37.683594 2 25 2 Z M 28.707031 34.292969 C 29.097656 34.683594 29.097656 35.316406 28.707031 35.707031 C 28.511719 35.902344 28.257813 36 28 36 C 27.742188 36 27.488281 35.902344 27.292969 35.707031 L 17.292969 25.707031 C 16.902344 25.316406 16.902344 24.683594 17.292969 24.292969 L 27.292969 14.292969 C 27.683594 13.902344 28.316406 13.902344 28.707031 14.292969 C 29.097656 14.683594 29.097656 15.316406 28.707031 15.707031 L 19.414063 25 Z">
  </path>
</svg>