<svg xmlns="http://www.w3.org/2000/svg" x="0px" y="0px" viewBox="0 0 50 50">
  <path
    d="M 25.001953 0 C 12.439953 -1.1842379e-15 4 4.6530469 4 8.9980469 C 4 13.345047 12.439953 18 25.001953 18 C 37.562953 18 46 13.345047 46 8.9980469 C 46 4.6530469 37.562953 0 25.001953 0 z M 4 13.609375 L 4 19.150391 C 4 23.424391 12.439953 28 25.001953 28 C 37.562953 28 46 23.424391 46 19.150391 L 46 13.609375 C 42.328 17.363375 34.412953 20 25.001953 20 C 15.588953 20 7.673 17.362375 4 13.609375 z M 4 23.910156 L 4 29.195312 C 4 33.468312 12.439953 38 25.001953 38 C 27.878547 38 30.521693 37.752003 32.914062 37.333984 L 31.28125 39.621094 C 29.287481 39.860435 27.193968 40 25.001953 40 C 15.588953 40 7.673 37.708078 4 33.955078 L 4 39.150391 C 4 43.423391 12.439953 48 25.001953 48 C 29.64692 48 33.703755 47.363332 37 46.357422 L 37 48 L 37 50 L 39 50 L 42 50 L 44 50 L 44 48 L 44 40 L 46.105469 40 L 49.990234 40 L 47.732422 36.837891 L 44.505859 32.320312 C 45.463163 31.308875 46 30.246054 46 29.195312 L 46 23.910156 C 42.328 27.662156 34.412953 30 25.001953 30 C 15.588953 30 7.673 27.662156 4 23.910156 z M 40.5 30.150391 L 46.105469 38 L 42 38 L 42 48 L 39 48 L 39 38 L 34.894531 38 L 40.5 30.150391 z">
  </path>
</svg>