<svg xmlns="http://www.w3.org/2000/svg" x="0px" y="0px" viewBox="0 0 50 50">
  <path
    d="M 27.960938 2.980469 C 27.441406 2.996094 26.949219 3.214844 26.585938 3.585938 L 5.171875 25 L 26.585938 46.414063 C 27.085938 46.9375 27.832031 47.148438 28.535156 46.964844 C 29.234375 46.78125 29.78125 46.234375 29.964844 45.535156 C 30.148438 44.832031 29.9375 44.085938 29.414063 43.585938 L 10.828125 25 L 29.414063 6.414063 C 30.003906 5.839844 30.183594 4.960938 29.863281 4.199219 C 29.539063 3.441406 28.785156 2.957031 27.960938 2.980469 Z M 40.960938 2.980469 C 40.441406 2.996094 39.949219 3.214844 39.585938 3.585938 L 18.171875 25 L 39.585938 46.414063 C 40.085938 46.9375 40.832031 47.148438 41.535156 46.964844 C 42.234375 46.78125 42.78125 46.234375 42.964844 45.535156 C 43.148438 44.832031 42.9375 44.085938 42.414063 43.585938 L 23.828125 25 L 42.414063 6.414063 C 43.003906 5.839844 43.183594 4.960938 42.863281 4.199219 C 42.539063 3.441406 41.785156 2.957031 40.960938 2.980469 Z">
  </path>
</svg>