<svg xmlns="http://www.w3.org/2000/svg" x="0px" y="0px" viewBox="0 0 50 50">
  <path
    d="M 5 5 L 5 16 A 2.0002 2.0002 0 1 0 9 16 L 9 11.828125 L 18.585938 21.414062 A 2.0002 2.0002 0 1 0 21.414062 18.585938 L 11.828125 9 L 16 9 A 2.0002 2.0002 0 1 0 16 5 L 5 5 z M 34 5 A 2.0002 2.0002 0 1 0 34 9 L 38.171875 9 L 28.585938 18.585938 A 2.0002 2.0002 0 1 0 31.414062 21.414062 L 41 11.828125 L 41 16 A 2.0002 2.0002 0 1 0 45 16 L 45 5 L 34 5 z M 19.960938 27.980469 A 2.0002 2.0002 0 0 0 18.585938 28.585938 L 9 38.171875 L 9 34 A 2.0002 2.0002 0 0 0 6.9707031 31.972656 A 2.0002 2.0002 0 0 0 5 34 L 5 45 L 16 45 A 2.0002 2.0002 0 1 0 16 41 L 11.828125 41 L 21.414062 31.414062 A 2.0002 2.0002 0 0 0 19.960938 27.980469 z M 29.978516 27.980469 A 2.0002 2.0002 0 0 0 28.585938 31.414062 L 38.171875 41 L 34 41 A 2.0002 2.0002 0 1 0 34 45 L 45 45 L 45 34 A 2.0002 2.0002 0 0 0 42.970703 31.972656 A 2.0002 2.0002 0 0 0 41 34 L 41 38.171875 L 31.414062 28.585938 A 2.0002 2.0002 0 0 0 29.978516 27.980469 z">
  </path>
</svg>