<svg xmlns="http://www.w3.org/2000/svg" x="0px" y="0px" viewBox="0 0 50 50">
  <path
    d="M 25 1 C 16.429688 1 9.242188 7.03125 7.4375 15.0625 C 7.621094 15.042969 7.8125 15 8 15 C 8.511719 15 9.003906 15.105469 9.46875 15.25 C 11.164063 8.238281 17.472656 3 25 3 C 32.523438 3 38.835938 8.238281 40.53125 15.25 C 40.996094 15.105469 41.484375 15 42 15 C 42.1875 15 42.378906 15.042969 42.5625 15.0625 C 40.757813 7.03125 33.566406 1 25 1 Z M 8 17 C 6.347656 17 5 18.347656 5 20 L 5 35 C 5 36.652344 6.347656 38 8 38 C 9.652344 38 11 36.652344 11 35 L 11 20 C 11 18.347656 9.652344 17 8 17 Z M 42 17 C 40.347656 17 39 18.347656 39 20 L 39 35 C 39 36.652344 40.347656 38 42 38 C 43.652344 38 45 36.652344 45 35 L 45 20 C 45 18.347656 43.652344 17 42 17 Z M 3 20.125 C 1.195313 21.574219 0 24.292969 0 27.5 C 0 30.707031 1.195313 33.425781 3 34.875 Z M 47 20.125 L 47 34.875 C 48.804688 33.425781 50 30.707031 50 27.5 C 50 24.292969 48.804688 21.574219 47 20.125 Z M 40.59375 39.78125 C 39.710938 42.496094 37.417969 44 34 44 L 32.90625 44 C 32.972656 44.324219 33 44.65625 33 45 C 33 45.34375 32.972656 45.675781 32.90625 46 L 34 46 C 38.492188 46 41.601563 43.742188 42.625 39.9375 C 42.414063 39.964844 42.214844 40 42 40 C 41.507813 40 41.042969 39.914063 40.59375 39.78125 Z M 23 42 C 21.347656 42 20 43.347656 20 45 C 20 46.652344 21.347656 48 23 48 L 28 48 C 29.652344 48 31 46.652344 31 45 C 31 43.347656 29.652344 42 28 42 Z">
  </path>
</svg>