<svg xmlns="http://www.w3.org/2000/svg" x="0px" y="0px" viewBox="0 0 24 24">
  <path
    d="M 12 3 C 11.728125 3 11.455547 3.1025938 11.248047 3.3085938 L 5.3125 9.1992188 C 4.6435 9.8632188 5.1174531 11 6.0644531 11 L 17.935547 11 C 18.882547 11 19.3575 9.8632188 18.6875 9.1992188 L 12.751953 3.3085938 C 12.543953 3.1025938 12.271875 3 12 3 z M 6.0644531 13 C 5.1174531 13 4.6444531 14.136781 5.3144531 14.800781 L 11.248047 20.691406 C 11.663047 21.103406 12.336953 21.103406 12.751953 20.691406 L 18.685547 14.800781 C 19.354547 14.136781 18.881547 13 17.935547 13 L 6.0644531 13 z">
  </path>
</svg>