<svg xmlns="http://www.w3.org/2000/svg" x="0px" y="0px" viewBox="0 0 50 50">
  <path
    d="M 37.058594 12.980469 C 36.246094 12.949219 35.492188 13.414063 35.160156 14.15625 C 34.824219 14.898438 34.96875 15.765625 35.53125 16.359375 L 41.675781 23 L 3 23 C 2.277344 22.988281 1.609375 23.367188 1.246094 23.992188 C 0.878906 24.613281 0.878906 25.386719 1.246094 26.007813 C 1.609375 26.632813 2.277344 27.011719 3 27 L 41.675781 27 L 35.53125 33.640625 C 35.03125 34.164063 34.855469 34.914063 35.066406 35.605469 C 35.277344 36.296875 35.84375 36.820313 36.546875 36.976563 C 37.253906 37.132813 37.988281 36.894531 38.46875 36.359375 L 48.972656 25 L 38.46875 13.640625 C 38.109375 13.242188 37.597656 13 37.058594 12.980469 Z">
  </path>
</svg>