<svg xmlns="http://www.w3.org/2000/svg" x="0px" y="0px" viewBox="0 0 24 24">
  <path
    d="M 12 1 C 11.448 1 11 1.448 11 2 L 11 9 L 7.7167969 9 C 6.7297969 9 5.8882812 9.7193125 5.7382812 10.695312 L 5.6269531 11.423828 C 5.5799531 11.726828 5.8150938 12 6.1210938 12 L 17.878906 12 C 18.185906 12 18.420047 11.726828 18.373047 11.423828 L 18.261719 10.695312 C 18.111719 9.7193125 17.270203 9 16.283203 9 L 13 9 L 13 2 C 13 1.448 12.552 1 12 1 z M 5.6601562 14 C 5.4131563 14 5.2030156 14.179828 5.1660156 14.423828 L 4.1777344 20.847656 C 4.0837344 21.453656 4.5530156 22 5.1660156 22 L 7.8046875 22 C 8.3206875 22 8.7527812 21.608703 8.8007812 21.095703 L 9 19 L 9.4179688 21.1875 C 9.5069688 21.6595 9.9184375 22 10.398438 22 L 13.535156 22 C 14.043156 22 14.471297 21.618281 14.529297 21.113281 L 15 17 L 15.964844 21.222656 C 16.068844 21.677656 16.473453 22 16.939453 22 L 18.833984 22 C 19.446984 22 19.916266 21.453656 19.822266 20.847656 L 18.833984 14.423828 C 18.796984 14.179828 18.586844 14 18.339844 14 L 5.6601562 14 z">
  </path>
</svg>