<svg xmlns="http://www.w3.org/2000/svg" x="0px" y="0px" viewBox="0 0 50 50">
  <path
    d="M 0.99023438 -0.009765625 A 1.0001 1.0001 0 0 0 0.29296875 1.7070312 L 48.292969 49.707031 A 1.0001 1.0001 0 1 0 49.707031 48.292969 L 41.941406 40.527344 C 45.698119 36.432757 48 30.982501 48 25 C 48 23.896 47.104 23 46 23 C 44.896 23 44 23.896 44 25 C 44 29.879959 42.140601 34.324383 39.103516 37.689453 L 12.310547 10.896484 C 15.675617 7.8593988 20.120041 6 25 6 C 29.776304 6 34.353565 7.8259888 37.828125 11 L 34 11 A 2.0002 2.0002 0 1 0 34 15 L 45 15 L 45 4 A 2.0002 2.0002 0 0 0 42.970703 1.9726562 A 2.0002 2.0002 0 0 0 41 4 L 41 8.4863281 C 36.742936 4.3741804 30.998832 2 25 2 C 19.017499 2 13.567243 4.3018807 9.4726562 8.0585938 L 1.7070312 0.29296875 A 1.0001 1.0001 0 0 0 0.99023438 -0.009765625 z M 6.8085938 10.949219 C 3.7975937 14.838219 2 19.712 2 25 C 2 26.104 2.896 27 4 27 C 5.104 27 6 26.104 6 25 C 6 20.817 7.3748281 16.958406 9.6738281 13.816406 L 6.8085938 10.949219 z M 5 35 L 5 46 A 2.0002 2.0002 0 1 0 9 46 L 9 41.513672 C 13.257064 45.62582 19.001168 48 25 48 C 30.288 48 35.161781 46.202406 39.050781 43.191406 L 36.183594 40.326172 C 33.041594 42.625172 29.183 44 25 44 C 20.223696 44 15.646435 42.174011 12.171875 39 L 16 39 A 2.0002 2.0002 0 1 0 16 35 L 5 35 z">
  </path>
</svg>