<svg xmlns="http://www.w3.org/2000/svg" x="0px" y="0px" viewBox="0 0 50 50">
  <path
    d="M 8.976563 2.980469 C 8.164063 2.980469 7.433594 3.476563 7.128906 4.230469 C 6.820313 4.984375 7.003906 5.847656 7.585938 6.414063 L 26.171875 25 L 7.585938 43.585938 C 7.0625 44.085938 6.851563 44.832031 7.035156 45.535156 C 7.21875 46.234375 7.765625 46.78125 8.464844 46.964844 C 9.167969 47.148438 9.914063 46.9375 10.414063 46.414063 L 31.828125 25 L 10.414063 3.585938 C 10.035156 3.199219 9.519531 2.980469 8.976563 2.980469 Z M 21.980469 2.980469 C 21.164063 2.980469 20.433594 3.476563 20.128906 4.230469 C 19.820313 4.984375 20.003906 5.847656 20.585938 6.414063 L 39.171875 25 L 20.585938 43.585938 C 20.0625 44.085938 19.851563 44.832031 20.035156 45.535156 C 20.21875 46.234375 20.765625 46.78125 21.464844 46.964844 C 22.167969 47.148438 22.914063 46.9375 23.414063 46.414063 L 44.828125 25 L 23.414063 3.585938 C 23.035156 3.199219 22.519531 2.980469 21.980469 2.980469 Z">
  </path>
</svg>