<svg xmlns="http://www.w3.org/2000/svg" x="0px" y="0px" viewBox="0 0 50 50">
  <path
    d="M 15.46875 6 C 15.25 6 15.019531 6.085938 14.84375 6.21875 L 4.40625 14.21875 C 4.390625 14.230469 4.359375 14.238281 4.34375 14.25 C 4.328125 14.265625 4.328125 14.265625 4.3125 14.28125 C 4.292969 14.300781 4.265625 14.324219 4.25 14.34375 C 4.210938 14.390625 4.1875 14.449219 4.15625 14.5 C 4.144531 14.519531 4.105469 14.542969 4.09375 14.5625 L 0.09375 22.5625 C -0.0976563 22.949219 -0.0234375 23.414063 0.28125 23.71875 C 0.472656 23.910156 0.742188 24 1 24 C 1.152344 24 1.296875 23.976563 1.4375 23.90625 L 4 22.625 L 4 43 C 4 43.554688 4.449219 44 5 44 L 35 44 C 35.148438 44 35.28125 43.964844 35.40625 43.90625 C 35.441406 43.890625 35.46875 43.863281 35.5 43.84375 C 35.589844 43.789063 35.683594 43.734375 35.75 43.65625 C 35.761719 43.644531 35.769531 43.636719 35.78125 43.625 L 43.78125 33.625 C 43.921875 33.445313 44 33.226563 44 33 L 44 26.28125 L 41.09375 29.3125 C 40.902344 29.511719 40.648438 29.625 40.375 29.625 C 40.339844 29.625 40.285156 29.628906 40.25 29.625 C 39.9375 29.589844 39.660156 29.394531 39.5 29.125 L 34 19.90625 L 34 42 L 6 42 L 6 16 L 34 16 L 40.53125 26.96875 L 49.71875 17.71875 C 50.042969 17.394531 50.082031 16.894531 49.84375 16.5 L 43.84375 6.5 C 43.835938 6.484375 43.824219 6.453125 43.8125 6.4375 C 43.785156 6.390625 43.753906 6.351563 43.71875 6.3125 C 43.710938 6.304688 43.726563 6.289063 43.71875 6.28125 C 43.703125 6.265625 43.671875 6.265625 43.65625 6.25 C 43.621094 6.21875 43.601563 6.183594 43.5625 6.15625 C 43.554688 6.152344 43.539063 6.160156 43.53125 6.15625 C 43.5 6.136719 43.46875 6.109375 43.4375 6.09375 C 43.40625 6.078125 43.375 6.074219 43.34375 6.0625 C 43.289063 6.042969 43.246094 6.042969 43.1875 6.03125 C 43.167969 6.027344 43.144531 6.003906 43.125 6 C 43.109375 5.996094 43.078125 6.003906 43.0625 6 C 43.035156 6 43.027344 6 43 6 Z M 15.8125 8 L 40.59375 8 L 34.59375 14 L 7.96875 14 Z M 15 20 C 14.449219 20 14 20.449219 14 21 C 14 21.550781 14.449219 22 15 22 L 25 22 C 25.550781 22 26 21.550781 26 21 C 26 20.449219 25.550781 20 25 20 Z">
  </path>
</svg>