<svg xmlns="http://www.w3.org/2000/svg" x="0px" y="0px" viewBox="0 0 30 30">
  <path
    d="M 6 4 C 4.895 4 4 4.895 4 6 L 4 10 L 10 10 L 10 4 L 6 4 z M 12 4 L 12 10 L 18 10 L 18 4 L 12 4 z M 20 4 L 20 10 L 26 10 L 26 6 C 26 4.895 25.105 4 24 4 L 20 4 z M 4 12 L 4 18 L 10 18 L 10 12 L 4 12 z M 12 12 L 12 18 L 18 18 L 18 12 L 12 12 z M 20 12 L 20 16.6875 C 18.552252 17.379853 17.379853 18.552252 16.6875 20 L 12 20 L 12 26 L 16.6875 26 C 17.815618 28.358958 20.219783 30 23 30 C 26.854149 30 30 26.854149 30 23 C 30 20.219783 28.358958 17.815618 26 16.6875 L 26 12 L 20 12 z M 23 18 C 25.773268 18 28 20.226732 28 23 C 28 25.773268 25.773268 28 23 28 C 20.226732 28 18 25.773268 18 23 C 18 20.226732 20.226732 18 23 18 z M 22.984375 18.986328 A 1.0001 1.0001 0 0 0 22 20 L 22 22.585938 L 20.792969 23.792969 A 1.0001 1.0001 0 1 0 22.207031 25.207031 L 23.707031 23.707031 A 1.0001 1.0001 0 0 0 24 23 L 24 20 A 1.0001 1.0001 0 0 0 22.984375 18.986328 z M 4 20 L 4 24 C 4 25.105 4.895 26 6 26 L 10 26 L 10 20 L 4 20 z">
  </path>
</svg>