<svg xmlns="http://www.w3.org/2000/svg" x="0px" y="0px" width="50" height="50" viewBox="0 0 50 50"
  style=" fill:#000000;">
  <path
    d="M 38.78125 13.96875 C 38.003906 14.042969 37.339844 14.566406 37.085938 15.304688 C 36.828125 16.046875 37.027344 16.867188 37.59375 17.40625 L 43.1875 23 L 16 23 L 16 27 L 43.1875 27 L 37.59375 32.59375 C 36.996094 33.074219 36.726563 33.851563 36.898438 34.597656 C 37.070313 35.347656 37.652344 35.929688 38.402344 36.101563 C 39.148438 36.273438 39.925781 36.003906 40.40625 35.40625 L 49.40625 26.40625 C 50.175781 25.628906 50.175781 24.371094 49.40625 23.59375 L 40.40625 14.59375 C 40.03125 14.199219 39.511719 13.972656 38.96875 13.96875 C 38.90625 13.964844 38.84375 13.964844 38.78125 13.96875 Z M 0 23 L 0 27 L 2 27 L 2 23 Z M 4 23 L 4 27 L 6 27 L 6 23 Z M 8 23 L 8 27 L 10 27 L 10 23 Z M 12 23 L 12 27 L 14 27 L 14 23 Z">
  </path>
</svg>