<svg xmlns="http://www.w3.org/2000/svg" x="0px" y="0px" width="50" height="50" viewBox="0 0 50 50"
  style=" fill:#000000;">
  <path
    d="M 32.8125 2.96875 C 32.023438 3.023438 31.339844 3.535156 31.070313 4.28125 C 30.796875 5.023438 30.992188 5.859375 31.5625 6.40625 L 38.09375 13 L 27 13 C 20.484375 13 15.449219 14.648438 12.03125 17.71875 C 8.613281 20.789063 7 25.191406 7 30 C 7 39.117188 10.25 44.96875 10.25 44.96875 C 10.785156 45.933594 12.003906 46.285156 12.96875 45.75 C 13.933594 45.214844 14.285156 43.996094 13.75 43.03125 C 13.75 43.03125 11 38.191406 11 30 C 11 26.050781 12.222656 22.960938 14.71875 20.71875 C 17.214844 18.476563 21.160156 17 27 17 L 38.09375 17 L 31.5625 23.59375 C 30.785156 24.386719 30.800781 25.660156 31.59375 26.4375 C 32.386719 27.214844 33.660156 27.199219 34.4375 26.40625 L 44.3125 16.40625 L 45.71875 15 L 44.3125 13.59375 L 34.4375 3.59375 C 34.0625 3.199219 33.542969 2.972656 33 2.96875 C 32.9375 2.964844 32.875 2.964844 32.8125 2.96875 Z">
  </path>
</svg>