<svg xmlns="http://www.w3.org/2000/svg" x="0px" y="0px" width="50" height="50" viewBox="0 0 50 50"
  style=" fill:#000000;">
  <path
    d="M 16.875 11 C 16.691406 11.023438 16.523438 11.097656 16.375 11.21875 L 0.375 24.21875 C 0.140625 24.410156 0 24.699219 0 25 C 0 25.300781 0.140625 25.589844 0.375 25.78125 L 16.375 38.78125 C 16.554688 38.929688 16.773438 39 17 39 C 17.144531 39 17.300781 38.972656 17.4375 38.90625 C 17.785156 38.742188 18 38.386719 18 38 L 18 36.1875 L 7.125 27.34375 C 6.417969 26.773438 6 25.910156 6 25 C 6 24.089844 6.390625 23.257813 7.09375 22.6875 L 18 13.8125 L 18 12 C 18 11.613281 17.785156 11.257813 17.4375 11.09375 C 17.265625 11.011719 17.058594 10.976563 16.875 11 Z M 24.875 11 C 24.691406 11.023438 24.523438 11.097656 24.375 11.21875 L 8.375 24.21875 C 8.140625 24.410156 8 24.699219 8 25 C 8 25.300781 8.140625 25.589844 8.375 25.78125 L 24.375 38.78125 C 24.675781 39.023438 25.089844 39.070313 25.4375 38.90625 C 25.785156 38.742188 26 38.386719 26 38 L 26 31 C 46.820313 31.378906 47.960938 43.515625 48 44.0625 C 48.035156 44.589844 48.476563 45 49 45 L 49.03125 45 C 49.585938 45 50.03125 44.554688 50.03125 44 C 50.03125 43.917969 50.019531 43.824219 50 43.75 C 49.882813 41.289063 48.203125 19.632813 26 19 L 26 12 C 26 11.613281 25.785156 11.257813 25.4375 11.09375 C 25.261719 11.011719 25.058594 10.976563 24.875 11 Z">
  </path>
</svg>