<svg xmlns="http://www.w3.org/2000/svg" x="0px" y="0px" width="50" height="50" viewBox="0 0 50 50"
  style=" fill:#000000;">
  <path
    d="M 45 45 C 44.476563 45 44.035156 44.59375 44.003906 44.066406 C 43.960938 43.519531 42.820313 31.386719 22 31.007813 L 22 38 C 22 38.386719 21.777344 38.738281 21.429688 38.902344 C 21.082031 39.066406 20.667969 39.019531 20.371094 38.777344 L 4.371094 25.777344 C 4.136719 25.585938 4 25.300781 4 25 C 4 24.699219 4.136719 24.414063 4.371094 24.222656 L 20.371094 11.222656 C 20.671875 10.980469 21.082031 10.929688 21.429688 11.097656 C 21.777344 11.261719 22 11.613281 22 12 L 22 19.015625 C 44.203125 19.644531 45.875 41.304688 45.992188 43.761719 C 46.011719 43.839844 46.019531 43.917969 46.019531 44 C 46.019531 44.554688 45.574219 45 45.019531 45 C 45.015625 45 45.007813 45 45 45 Z">
  </path>
</svg>