<svg height="480pt" viewBox="0 -16 480.0808 480" width="480pt" xmlns="http://www.w3.org/2000/svg"><path d="m8.039062 144.039062h464c3.671876.019532 6.886719-2.460937 7.792969-6.019531.910157-3.558593-.722656-7.277343-3.953125-9.019531l-232-128c-2.398437-1.28125-5.277344-1.28125-7.679687 0l-232 128c-3.230469 1.742188-4.859375 5.460938-3.949219 9.019531.90625 3.558594 4.121094 6.039063 7.789062 6.019531zm232-96c13.257813 0 24 10.746094 24 24 0 13.257813-10.742187 24-24 24-13.253906 0-24-10.742187-24-24 0-13.253906 10.746094-24 24-24zm0 0"/><path d="m472.039062 400.039062h-16v-24c0-4.417968-3.582031-8-8-8h-416c-4.417968 0-8 3.582032-8 8v24h-16c-4.417968 0-7.9999995 3.582032-7.9999995 8v32c0 4.417969 3.5820315 8 7.9999995 8h464c4.417969 0 8-3.582031 8-8v-32c0-4.417968-3.582031-8-8-8zm0 0"/><path d="m278.128906 352.039062-13.929687-174.796874 6.882812-17.203126h-62.082031l6.878906 17.203126-13.925781 174.796874zm0 0"/><path d="m353 160.039062 6.878906 17.203126-13.925781 174.796874h76.175781l-13.929687-174.796874 6.882812-17.203126zm0 0"/><path d="m134.128906 352.039062-13.929687-174.796874 6.882812-17.203126h-62.082031l6.878906 17.203126-13.925781 174.796874zm0 0"/></svg>