<svg xmlns="http://www.w3.org/2000/svg" viewBox="0 0 273.85 274.09"><defs></defs><g id="Layer_2" data-name="Layer 2"><g id="Layer_1-2" data-name="Layer 1"><path class="cls-1" d="M161.05,165.82l48.36,46.54.31-.3-31-35.63a11.5,11.5,0,0,1,1.57-.26c12.26-.18,24.53-.32,36.8-.52a4.11,4.11,0,0,1,3.25,1.38Q226.08,183,232,188.77a9.15,9.15,0,0,1,3.12,6.93c0,10.75.28,21.5.36,32.25a10.64,10.64,0,0,1-9.57,10.4,101.27,101.27,0,0,1-10.16,0c-2.75-.06-5.5-.28-8.26-.38q-8-.3-15.93-.53a5.41,5.41,0,0,1-3.81-1.44c-1.52-1.47-3.1-2.89-4.58-4.4q-20.91-21.39-41.81-42.79a2.92,2.92,0,0,1-.9-2.62c.26-2.94.24-5.9.37-8.86,0-1-.12-2.12.36-2.79s1.61-.51,2.48-.66a37.91,37.91,0,0,0,16.34-7.3Z" transform="translate(0 0)"/><path class="cls-1" d="M166.18,160.51c.42-.57.79-1.09,1.17-1.59,3.84-5.1,5.71-11,6.75-17.18.17-1,.5-1.38,1.57-1.4,10.94-.19,21.89-.44,32.83-.68l32.71-.7a.87.87,0,0,0,.6-.2c-3.85-.78-7.78-.69-11.67-1s-7.89-.52-11.83-.77-8-.51-11.95-.79-7.86-.57-12-.87c1.73-1.87,3.3-3.61,4.92-5.3q9.93-10.41,19.88-20.79c.47-.49,1-1,1.44-1.44a5,5,0,0,1,4.12-1.5c2,.13,4,.13,6,.15,4.07.06,8.14.14,12.22.11,2.18,0,3.65,1.14,5.07,2.54q8,7.91,16.08,15.78,3,2.89,5.94,5.76a11.39,11.39,0,0,1,3.3,12,9.78,9.78,0,0,1-2.89,4.46c-2.46,2.4-5,4.74-7.48,7.09q-6.95,6.53-13.92,13c-.82.76-1.7,1.45-2.55,2.18a8,8,0,0,1-6.1,1.83c-3.62-.25-7.27-.15-10.9-.19-17-.17-34-.37-51.06-.48-2.17,0-3.82-.46-5.23-2.3a82.28,82.28,0,0,0-5.58-6.1Z" transform="translate(0 0)"/><path class="cls-1" d="M165.7,112.85,212.88,64l-.36-.38L176.24,95.35c0-1.79,0-3.4,0-5-.18-8.34-.38-16.69-.55-25q-.1-4.9-.07-9.83a1.74,1.74,0,0,1,.53-1.1c4.78-4.72,9.55-9.44,14.42-14.06A5,5,0,0,1,193.61,39c11.3-.24,22.61-.46,33.91-.45,6.57,0,11,4.64,11,11.23,0,5.27-.3,10.54-.5,15.81s-.51,10.77-.62,16.16a7.41,7.41,0,0,1-2.4,5.66q-23.19,22.49-46.21,45.16a2.94,2.94,0,0,1-2.34.94c-3.71-.19-7.42-.38-11.13-.52a1.07,1.07,0,0,1-1.19-1c-.26-1.41-.52-2.82-.83-4.22-1.15-5.17-3.82-9.6-6.87-13.84Z" transform="translate(0 0)"/><path class="cls-1" d="M113.37,166.26c.59.38,1.07.66,1.51,1A33.34,33.34,0,0,0,132.16,174c1.17.13,1.6.54,1.6,1.78,0,7.11.08,14.23.23,21.34q.44,22,1,44a6.42,6.42,0,0,0,.1.75h.38c1.07-15.72,2.13-31.43,3.22-47.42.69.6,1.23,1.05,1.73,1.53l22.28,21.46c1.38,1.33,2.84,2.58,4.17,4a3,3,0,0,1,.82,1.87c-.07,6.8-.26,13.59-.33,20.38a4.12,4.12,0,0,1-1.19,3c-3.1,3.18-6.21,6.35-9.29,9.53q-6.65,6.84-13.24,13.72a13,13,0,0,1-7.76,4.13,8.46,8.46,0,0,1-6.15-1.43,26.92,26.92,0,0,1-4.49-3.75c-7-7.44-14-15-20.94-22.43a4.93,4.93,0,0,1-1.44-3.55c.09-10.59.13-21.18.23-31.77.08-7.91.22-15.82.31-23.74.05-3.79,0-7.58.08-11.38a1.38,1.38,0,0,1,.39-.93C107,172.1,110.14,169.22,113.37,166.26Z" transform="translate(0 0)"/><path class="cls-1" d="M99.64,133.65l-67.19,1.23,0,.61c15.58,1.11,31.18,2,47.14,3.2-.91,1-1.57,1.79-2.27,2.52-7.77,8-15.61,16-23.29,24.17a6.51,6.51,0,0,1-5.49,2.31c-6-.23-12-.23-18-.28A5.05,5.05,0,0,1,27,165.72c-4.69-4.52-9.39-9-14.06-13.57-3.38-3.29-6.78-6.56-10-10C.15,139.34-.46,135.81.31,132a10.38,10.38,0,0,1,3.33-5.3c3.48-3.3,7-6.56,10.5-9.83,4.45-4.14,8.92-8.25,13.33-12.43a5.91,5.91,0,0,1,4.42-1.73q17.43.27,34.88.48c10,.11,20,.14,30.08.3a4.45,4.45,0,0,1,2.74,1.16c1.82,1.72,3.47,3.64,5.17,5.49a29.13,29.13,0,0,0,2.19,2.38c.77.67.63,1.2.13,1.92-1.12,1.64-2.26,3.29-3.27,5a32.38,32.38,0,0,0-3.88,12.35C99.85,132.43,99.74,133,99.64,133.65Z" transform="translate(0 0)"/><path class="cls-1" d="M108.2,160.87,62,209.1l.4.42c11.63-10.1,23.2-20.29,35-30.69.13,1.32.31,2.36.33,3.4.1,5.36.15,10.71.25,16.06.13,6.39.32,12.78.4,19.17a3.4,3.4,0,0,1-.85,2.24q-7.15,7.17-14.47,14.18A4.32,4.32,0,0,1,80.43,235c-11.3.23-22.61.36-33.91.53a10.35,10.35,0,0,1-10.86-9.25,55.07,55.07,0,0,1-.07-8.62c0-2.59.25-5.18.34-7.78.2-5.67.36-11.34.57-17a23,23,0,0,1,.31-2.73A5.5,5.5,0,0,1,38.56,187q22-21.45,44-43c.86-.83,1.62-1.79,2.55-2.53a3.86,3.86,0,0,1,2.21-1c4.06.09,8.13.33,11.93.51,1.09,3.55,2.09,7.06,3.25,10.51A29.16,29.16,0,0,0,108.2,160.87Z" transform="translate(0 0)"/><path class="cls-1" d="M160.53,107.89a39.54,39.54,0,0,0-20.19-8.33c-.45-22.69-.9-45.23-1.35-67.77l-.41,0c-1.14,15.82-2.27,31.64-3.42,47.66-.41-.35-.73-.61-1-.9-8.62-8.28-17.17-16.62-25.89-24.79a5.6,5.6,0,0,1-2-4.79c.18-5.91.2-11.82.24-17.74a5.85,5.85,0,0,1,1.78-4.28Q118.91,16,129.5,5c1.9-2,3.87-3.88,6.62-4.56a10.42,10.42,0,0,1,10.23,2.52c3.33,3.22,6.49,6.62,9.65,10,4.45,4.75,8.81,9.59,13.26,14.35a6.6,6.6,0,0,1,1.92,4.94c-.24,15.66-.39,31.32-.55,47,0,5.15-.07,10.31-.11,15.46a9.5,9.5,0,0,1-.12,2.27,5.58,5.58,0,0,1-1.05,2.58C166.52,102.34,163.57,105,160.53,107.89Z" transform="translate(0 0)"/><path class="cls-1" d="M113,108.11Q88.66,84.94,64.43,61.87l-.3.16L95.05,97.4a2.83,2.83,0,0,1-1,.38c-4,.07-8,.09-12,.15q-6.28.07-12.58.19c-4.51.07-9,.18-13.54.2a2.58,2.58,0,0,1-1.65-.66c-4.69-4.74-9.33-9.54-14-14.3a5,5,0,0,1-1.51-3.74c-.11-10.38-.31-20.77-.43-31.16a26.44,26.44,0,0,1,.37-4.87c.67-3.85,4.91-8.36,11-8.17,4.6.14,9.19.32,13.78.48,4.07.14,8.14.26,12.21.43,2.67.11,5.34.31,8,.46a3.76,3.76,0,0,1,2.59,1.26q21.51,22.07,43,44.09c1.14,1.17,2.37,2.27,3.51,3.44a1.92,1.92,0,0,1,.54,1.2c-.13,4-.35,8-.47,12,0,1.06-.72,1.11-1.42,1.19a34.73,34.73,0,0,0-15.6,6C115,106.61,114,107.38,113,108.11Z" transform="translate(0 0)"/><path class="cls-1" d="M163.49,136.39c.06,15.54-11.57,27.21-26.82,27.15-15.57,0-26.43-12.85-26.28-27,.16-14.4,11.8-26.34,27.48-26.14C151.37,110.58,163.52,122.78,163.49,136.39Z" transform="translate(0 0)"/></g></g></svg>